<svg width="21" height="21" viewBox="0 0 21 21" fill="none" xmlns="http://www.w3.org/2000/svg">
<path fill-rule="evenodd" clip-rule="evenodd" d="M8.61914 11.4406C11.7341 11.4406 14.2629 13.9694 14.2629 17.0844C14.2629 13.9694 16.7916 11.4406 19.9066 11.4406C16.7916 11.4406 14.2629 8.91188 14.2629 5.79688C14.2629 8.91188 11.7341 11.4406 8.61914 11.4406Z" fill="#FEFEFE"/>
<path fill-rule="evenodd" clip-rule="evenodd" d="M1.09375 16.1436C3.17013 16.1436 4.85625 17.8297 4.85625 19.9061C4.85625 17.8297 6.54238 16.1436 8.61875 16.1436C6.54238 16.1436 4.85625 14.4575 4.85625 12.3811C4.85625 14.4575 3.17013 16.1436 1.09375 16.1436Z" fill="#FEFEFE"/>
<path fill-rule="evenodd" clip-rule="evenodd" d="M2.97461 4.85601C5.05098 4.85601 6.73711 6.54213 6.73711 8.61851C6.73711 6.54213 8.42324 4.85601 10.4996 4.85601C8.42324 4.85601 6.73711 3.16988 6.73711 1.09351C6.73711 3.16988 5.05098 4.85601 2.97461 4.85601Z" fill="#FEFEFE"/>
</svg>
