<svg width="24" height="25" viewBox="0 0 24 25" fill="none" xmlns="http://www.w3.org/2000/svg">
<path d="M12.0264 24.0977H11.9736C5.37142 24.0977 0 18.7262 0 12.1241V12.0713C0 5.46909 5.37142 0.0976562 11.9736 0.0976562H12.0264C18.6286 0.0976562 24 5.46909 24 12.0713V12.1241C24 18.7262 18.6286 24.0977 12.0264 24.0977ZM11.9736 0.910032C5.81904 0.910032 0.812375 5.91671 0.812375 12.0713V12.1241C0.812375 18.2786 5.81904 23.2853 11.9736 23.2853H12.0264C18.181 23.2853 23.1876 18.2786 23.1876 12.1241V12.0713C23.1876 5.91671 18.181 0.910032 12.0264 0.910032H11.9736Z" fill="#344054"/>
<path d="M13.6145 9.40681V11.9325H16.7389L16.2442 15.3347H13.6145V23.1733C13.0873 23.2464 12.5478 23.2846 12.0003 23.2846C11.3683 23.2846 10.7476 23.2342 10.1432 23.1368V15.3347H7.26172V11.9325H10.1432V8.84221C10.1432 6.925 11.6973 5.37012 13.6153 5.37012V5.37174C13.621 5.37174 13.6259 5.37012 13.6316 5.37012H16.7397V8.31254H14.7088C14.1052 8.31254 13.6153 8.8024 13.6153 9.40599L13.6145 9.40681Z" fill="#344054"/>
</svg>
