<svg width="25" height="30" viewBox="0 0 25 30" fill="none" xmlns="http://www.w3.org/2000/svg">
<path opacity="0.9" d="M10.1407 14.5931C10.8466 16.4403 10.7715 18.3626 8.65396 19.1285C4.29877 20.7354 3.3226 16.5154 3.26253 16.3051L10.1407 14.5931ZM2.58673 13.3766L9.07446 11.7697C8.78912 10.1928 9.22464 8.61594 9.22464 6.75372C9.22464 4.23071 7.22726 -0.710178 4.04346 0.0857708C0.409128 0.986845 -0.116498 5.02666 0.018663 6.97899C0.198878 8.93132 2.4816 13.1063 2.58673 13.3766ZM20.8185 26.8026C20.7734 27.0279 19.7822 31.2329 15.427 29.641C13.3245 28.8601 13.2344 26.9378 13.9403 25.0906L20.8185 26.8026ZM24.0473 17.4915C24.1975 15.5392 23.6869 11.4844 20.0375 10.5833C16.8688 9.75731 14.8714 14.7282 14.8714 17.2663C14.8714 19.1135 15.2919 20.6903 15.0366 22.2672L21.4943 23.8741C21.6144 23.6038 23.8821 19.4288 24.0473 17.4915Z" fill="#D2F1F3"/>
</svg>
