<svg width="86" height="87" viewBox="0 0 86 87" fill="none" xmlns="http://www.w3.org/2000/svg">
<g filter="url(#filter0_d_234_469)">
<rect x="18" y="64" width="50" height="50" rx="25" transform="rotate(-90 18 64)" fill="#FEFEFE" shape-rendering="crispEdges"/>
<path d="M47.9727 39.44C47.9727 39.04 47.8127 38.66 47.5327 38.38L40.5527 31.44C40.2727 31.14 39.8927 31 39.5127 31C39.1127 31 38.7327 31.14 38.4327 31.44C37.8527 32.04 37.8527 32.98 38.4527 33.56L44.3527 39.44L38.4527 45.32C37.8527 45.9 37.8527 46.86 38.4327 47.44C39.0327 48.04 39.9727 48.04 40.5527 47.44L47.5327 40.5C47.8127 40.22 47.9727 39.84 47.9727 39.44Z" fill="#6CD2D9"/>
</g>
<defs>
<filter id="filter0_d_234_469" x="0.287535" y="0.715651" width="85.4249" height="85.4249" filterUnits="userSpaceOnUse" color-interpolation-filters="sRGB">
<feFlood flood-opacity="0" result="BackgroundImageFix"/>
<feColorMatrix in="SourceAlpha" type="matrix" values="0 0 0 0 0 0 0 0 0 0 0 0 0 0 0 0 0 0 127 0" result="hardAlpha"/>
<feOffset dy="4.42812"/>
<feGaussianBlur stdDeviation="8.85623"/>
<feComposite in2="hardAlpha" operator="out"/>
<feColorMatrix type="matrix" values="0 0 0 0 0.620833 0 0 0 0 0.620833 0 0 0 0 0.620833 0 0 0 0.25 0"/>
<feBlend mode="normal" in2="BackgroundImageFix" result="effect1_dropShadow_234_469"/>
<feBlend mode="normal" in="SourceGraphic" in2="effect1_dropShadow_234_469" result="shape"/>
</filter>
</defs>
</svg>
