<svg width="208" height="49" viewBox="0 0 208 49" fill="none" xmlns="http://www.w3.org/2000/svg">
<path d="M182.716 15.348H188.916L194.886 26.6236H195.142L201.112 15.348H207.312L197.763 32.2742V41.5298H192.266V32.2742L182.716 15.348Z" fill="#1D2939"/>
<path d="M164.505 41.5298H158.573L167.612 15.348H174.745L183.771 41.5298H177.839L171.281 21.331H171.076L164.505 41.5298ZM164.134 31.2386H178.146V35.5597H164.134V31.2386ZM169.286 12.8168L165.387 7H170.411L173.134 12.8168H169.286Z" fill="#1D2939"/>
<path d="M155.438 15.348V41.5298H149.902V15.348H155.438Z" fill="#1D2939"/>
<path d="M139.877 23.8111C139.698 23.189 139.446 22.6393 139.122 22.162C138.799 21.6762 138.402 21.2671 137.934 20.9347C137.473 20.5938 136.945 20.3339 136.348 20.1549C135.76 19.9759 135.108 19.8864 134.392 19.8864C133.054 19.8864 131.878 20.2188 130.864 20.8836C129.858 21.5484 129.074 22.5157 128.512 23.7856C127.949 25.0469 127.668 26.5895 127.668 28.4134C127.668 30.2373 127.945 31.7884 128.499 33.0668C129.053 34.3452 129.837 35.3211 130.851 35.9944C131.865 36.6591 133.063 36.9915 134.443 36.9915C135.696 36.9915 136.766 36.7699 137.652 36.3268C138.547 35.8751 139.229 35.2401 139.698 34.4219C140.175 33.6038 140.414 32.6364 140.414 31.5199L141.539 31.6861H134.789V27.5185H145.745V30.8168C145.745 33.118 145.259 35.0952 144.287 36.7486C143.316 38.3935 141.978 39.6634 140.273 40.5583C138.568 41.4447 136.617 41.8878 134.418 41.8878C131.963 41.8878 129.807 41.3466 127.949 40.2643C126.091 39.1734 124.642 37.6265 123.603 35.6236C122.571 33.6123 122.056 31.2259 122.056 28.4645C122.056 26.3424 122.362 24.4503 122.976 22.7884C123.598 21.118 124.468 19.7032 125.584 18.5441C126.701 17.385 128 16.5029 129.483 15.8978C130.966 15.2927 132.573 14.9901 134.303 14.9901C135.786 14.9901 137.166 15.2074 138.445 15.6421C139.723 16.0682 140.857 16.6734 141.845 17.4574C142.843 18.2415 143.657 19.1748 144.287 20.2572C144.918 21.331 145.323 22.5157 145.502 23.8111H139.877Z" fill="#1D2939"/>
<path d="M81.2422 15.348H88.0689L95.2791 32.9389H95.5859L102.796 15.348H109.623V41.5298H104.254V24.4886H104.036L97.2607 41.402H93.6044L86.8288 24.4247H86.6115V41.5298H81.2422V15.348Z" fill="#1D2939"/>
<path d="M58.8254 41.5298H52.8936L61.9319 15.348H69.0654L78.091 41.5298H72.1592L65.6009 21.331H65.3964L58.8254 41.5298ZM58.4546 31.2386H72.466V35.5597H58.4546V31.2386ZM65.4987 48.8807C64.689 48.8807 63.9944 48.6122 63.4149 48.0753C62.8353 47.5384 62.5455 46.8906 62.5455 46.1321C62.5455 45.3736 62.8353 44.7259 63.4149 44.1889C63.9944 43.652 64.689 43.3835 65.4987 43.3835C66.3083 43.3835 66.9987 43.652 67.5697 44.1889C68.1492 44.7259 68.439 45.3736 68.439 46.1321C68.439 46.8906 68.1492 47.5384 67.5697 48.0753C66.9987 48.6122 66.3083 48.8807 65.4987 48.8807Z" fill="#1D2939"/>
<path d="M30.6875 41.5298V15.348H41.017C42.9943 15.348 44.6818 15.7017 46.0795 16.4091C47.4858 17.108 48.5554 18.1009 49.2884 19.3878C50.0298 20.6662 50.4006 22.1705 50.4006 23.9006C50.4006 25.6392 50.0256 27.135 49.2756 28.3878C48.5256 29.6321 47.4389 30.5867 46.0156 31.2514C44.6009 31.9162 42.8878 32.2486 40.8764 32.2486H33.9602V27.7997H39.9815C41.0384 27.7997 41.9162 27.6548 42.6151 27.3651C43.3139 27.0753 43.8338 26.6406 44.1747 26.0611C44.5241 25.4815 44.6989 24.7614 44.6989 23.9006C44.6989 23.0313 44.5241 22.2983 44.1747 21.7017C43.8338 21.1051 43.3097 20.6534 42.6023 20.3466C41.9034 20.0313 41.0213 19.8736 39.956 19.8736H36.223V41.5298H30.6875ZM44.8267 29.6151L51.3338 41.5298H45.223L38.8565 29.6151H44.8267Z" fill="#1D2939"/>
<path d="M0 0L50 0.544444L54.5 5.98889L0 5.44444V0Z" fill="#1D2939"/>
<path d="M12 5H18V42H12V5Z" fill="#1D2939"/>
</svg>
