<svg width="25" height="30" viewBox="0 0 25 30" fill="none" xmlns="http://www.w3.org/2000/svg">
<path d="M13.9296 14.5931C13.2237 16.4403 13.2988 18.3626 15.4164 19.1285C19.7715 20.7354 20.7477 16.5154 20.8078 16.3051L13.9296 14.5931ZM21.4836 13.3766L14.9958 11.7697C15.2812 10.1928 14.8457 8.61594 14.8457 6.75372C14.8457 4.23071 16.8431 -0.710178 20.0268 0.0857708C23.6612 0.986845 24.1868 5.02666 24.0516 6.97899C23.8714 8.93132 21.5887 13.1063 21.4836 13.3766ZM3.25184 26.8026C3.2969 27.0279 4.28808 31.2329 8.64327 29.641C10.7458 28.8601 10.8359 26.9378 10.13 25.0906L3.25184 26.8026ZM0.022995 17.4915C-0.127184 15.5392 0.383423 11.4844 4.03278 10.5833C7.20155 9.75731 9.19894 14.7282 9.19894 17.2663C9.19894 19.1135 8.77843 20.6903 9.03374 22.2672L2.57604 23.8741C2.4559 23.6038 0.188192 19.4288 0.022995 17.4915Z" fill="#D2F1F3"/>
</svg>
