<svg width="24" height="25" viewBox="0 0 24 25" fill="none" xmlns="http://www.w3.org/2000/svg">
<path d="M12 16.5708V12.5708M12 8.5708H12.01M7.8 21.5708H16.2C17.8802 21.5708 18.7202 21.5708 19.362 21.2438C19.9265 20.9562 20.3854 20.4973 20.673 19.9328C21 19.291 21 18.451 21 16.7708V8.3708C21 6.69064 21 5.85056 20.673 5.20883C20.3854 4.64434 19.9265 4.1854 19.362 3.89778C18.7202 3.5708 17.8802 3.5708 16.2 3.5708H7.8C6.11984 3.5708 5.27976 3.5708 4.63803 3.89778C4.07354 4.1854 3.6146 4.64434 3.32698 5.20883C3 5.85056 3 6.69064 3 8.3708V16.7708C3 18.451 3 19.291 3.32698 19.9328C3.6146 20.4973 4.07354 20.9562 4.63803 21.2438C5.27976 21.5708 6.11984 21.5708 7.8 21.5708Z" stroke="#344054" stroke-width="2" stroke-linecap="round" stroke-linejoin="round"/>
</svg>
