<svg width="24" height="25" viewBox="0 0 24 25" fill="none" xmlns="http://www.w3.org/2000/svg">
<path d="M12.0264 24.0977H11.9736C5.37143 24.0977 0 18.7262 0 12.1241V12.0712C0 5.46907 5.37143 0.0976562 11.9736 0.0976562H12.0264C18.6286 0.0976562 24 5.46907 24 12.0712V12.1241C24 18.7262 18.6286 24.0977 12.0264 24.0977ZM11.9736 0.910032C5.81904 0.910032 0.812375 5.91669 0.812375 12.0712V12.1241C0.812375 18.2786 5.81904 23.2853 11.9736 23.2853H12.0264C18.181 23.2853 23.1876 18.2786 23.1876 12.1241V12.0712C23.1876 5.91669 18.181 0.910032 12.0264 0.910032H11.9736Z" fill="#344054"/>
<path d="M15.588 5.22144H8.41312C6.43092 5.22144 4.81836 6.834 4.81836 8.8162V15.3802C4.81836 17.3624 6.43092 18.9749 8.41312 18.9749H15.588C17.5702 18.9749 19.1828 17.3624 19.1828 15.3802V8.8162C19.1828 6.834 17.5702 5.22144 15.588 5.22144ZM6.08648 8.8162C6.08648 7.53346 7.13038 6.48954 8.41312 6.48954H15.588C16.8708 6.48954 17.9147 7.53346 17.9147 8.8162V15.3802C17.9147 16.6629 16.8708 17.7068 15.588 17.7068H8.41312C7.13038 17.7068 6.08648 16.6629 6.08648 15.3802V8.8162Z" fill="#344054"/>
<path d="M12.001 15.4406C13.8442 15.4406 15.3447 13.941 15.3447 12.0969C15.3447 10.2528 13.8451 8.75317 12.001 8.75317C10.1569 8.75317 8.65723 10.2528 8.65723 12.0969C8.65723 13.941 10.1569 15.4406 12.001 15.4406ZM12.001 10.0221C13.1456 10.0221 14.0766 10.9531 14.0766 12.0977C14.0766 13.2424 13.1456 14.1733 12.001 14.1733C10.8563 14.1733 9.92535 13.2424 9.92535 12.0977C9.92535 10.9531 10.8563 10.0221 12.001 10.0221Z" fill="#344054"/>
<path d="M15.6544 9.29485C16.151 9.29485 16.5558 8.89087 16.5558 8.39341C16.5558 7.89594 16.1518 7.49194 15.6544 7.49194C15.1569 7.49194 14.7529 7.89594 14.7529 8.39341C14.7529 8.89087 15.1569 9.29485 15.6544 9.29485Z" fill="#344054"/>
</svg>
