<svg width="24" height="25" viewBox="0 0 24 25" fill="none" xmlns="http://www.w3.org/2000/svg">
<path d="M21.5 18.0708L14.8571 12.0708M9.14286 12.0708L2.50003 18.0708M2 7.0708L10.1649 12.7862C10.8261 13.2491 11.1567 13.4805 11.5163 13.5701C11.8339 13.6493 12.1661 13.6493 12.4837 13.5701C12.8433 13.4805 13.1739 13.2491 13.8351 12.7862L22 7.0708M6.8 20.0708H17.2C18.8802 20.0708 19.7202 20.0708 20.362 19.7438C20.9265 19.4562 21.3854 18.9973 21.673 18.4328C22 17.791 22 16.951 22 15.2708V8.8708C22 7.19064 22 6.35056 21.673 5.70883C21.3854 5.14434 20.9265 4.6854 20.362 4.39778C19.7202 4.0708 18.8802 4.0708 17.2 4.0708H6.8C5.11984 4.0708 4.27976 4.0708 3.63803 4.39778C3.07354 4.6854 2.6146 5.14434 2.32698 5.70883C2 6.35056 2 7.19064 2 8.8708V15.2708C2 16.951 2 17.791 2.32698 18.4328C2.6146 18.9973 3.07354 19.4562 3.63803 19.7438C4.27976 20.0708 5.11984 20.0708 6.8 20.0708Z" stroke="#667085" stroke-width="2" stroke-linecap="round" stroke-linejoin="round"/>
</svg>
