<svg width="24" height="25" viewBox="0 0 24 25" fill="none" xmlns="http://www.w3.org/2000/svg">
<path d="M8.38028 8.95101C9.07627 10.4006 10.0251 11.7593 11.2266 12.9608C12.4282 14.1624 13.7869 15.1112 15.2365 15.8072C15.3612 15.8671 15.4235 15.897 15.5024 15.92C15.7828 16.0017 16.127 15.943 16.3644 15.773C16.4313 15.7252 16.4884 15.668 16.6027 15.5537C16.9523 15.2041 17.1271 15.0293 17.3029 14.915C17.9658 14.484 18.8204 14.484 19.4833 14.915C19.6591 15.0293 19.8339 15.2041 20.1835 15.5537L20.3783 15.7486C20.9098 16.28 21.1755 16.5457 21.3198 16.8311C21.6069 17.3987 21.6069 18.069 21.3198 18.6365C21.1755 18.9219 20.9098 19.1876 20.3783 19.7191L20.2207 19.8767C19.6911 20.4063 19.4263 20.6711 19.0662 20.8734C18.6667 21.0978 18.0462 21.2592 17.588 21.2578C17.1751 21.2566 16.8928 21.1765 16.3284 21.0163C13.295 20.1553 10.4326 18.5308 8.04466 16.1428C5.65668 13.7548 4.03221 10.8925 3.17124 7.85909C3.01103 7.29465 2.93092 7.01242 2.9297 6.59947C2.92833 6.14125 3.08969 5.52076 3.31411 5.12126C3.51636 4.76122 3.78117 4.49641 4.3108 3.96679L4.46843 3.80915C4.99987 3.27771 5.2656 3.01199 5.55098 2.86765C6.11854 2.58058 6.7888 2.58058 7.35636 2.86765C7.64174 3.01199 7.90747 3.27771 8.43891 3.80915L8.63378 4.00402C8.98338 4.35363 9.15819 4.52843 9.27247 4.70421C9.70347 5.3671 9.70347 6.22168 9.27247 6.88457C9.15819 7.06035 8.98338 7.23515 8.63378 7.58476C8.51947 7.69907 8.46231 7.75623 8.41447 7.82304C8.24446 8.06047 8.18576 8.40473 8.26748 8.68508C8.29048 8.76397 8.32041 8.82632 8.38028 8.95101Z" stroke="#344054" stroke-width="2" stroke-linecap="round" stroke-linejoin="round"/>
</svg>
