<svg width="24" height="25" viewBox="0 0 24 25" fill="none" xmlns="http://www.w3.org/2000/svg">
<path d="M12.0264 24.0977H11.9736C5.37143 24.0977 0 18.7262 0 12.1241V12.0712C0 5.46907 5.37143 0.0976562 11.9736 0.0976562H12.0264C18.6286 0.0976562 24 5.46907 24 12.0712V12.1241C24 18.7262 18.6286 24.0977 12.0264 24.0977ZM11.9736 0.910032C5.81904 0.910032 0.812375 5.91669 0.812375 12.0712V12.1241C0.812375 18.2786 5.81904 23.2853 11.9736 23.2853H12.0264C18.181 23.2853 23.1876 18.2786 23.1876 12.1241V12.0712C23.1876 5.91669 18.181 0.910032 12.0264 0.910032H11.9736Z" fill="#344054"/>
<path d="M17.6058 8.89231V11.0817C17.2232 11.0443 16.726 10.9574 16.176 10.7559C15.4579 10.4927 14.9234 10.1328 14.5732 9.85417V14.2792L14.5643 14.2654C14.57 14.3531 14.5732 14.4425 14.5732 14.5326C14.5732 16.7301 12.7852 18.519 10.5869 18.519C8.38862 18.519 6.60059 16.7301 6.60059 14.5326C6.60059 12.3352 8.38862 10.5455 10.5869 10.5455C10.8022 10.5455 11.0134 10.5626 11.2198 10.5959V12.7535C11.0215 12.6829 10.8087 12.6447 10.5869 12.6447C9.54626 12.6447 8.69895 13.4912 8.69895 14.5326C8.69895 15.5741 9.54626 16.4206 10.5869 16.4206C11.6276 16.4206 12.4749 15.5733 12.4749 14.5326C12.4749 14.4936 12.4741 14.4546 12.4716 14.4157V5.81665H14.6593C14.6675 6.00187 14.6748 6.18873 14.6829 6.37395C14.6975 6.73871 14.8275 7.08885 15.0542 7.37561C15.3198 7.71275 15.7122 8.1043 16.263 8.41707C16.7788 8.70871 17.263 8.83464 17.6058 8.89394V8.89231Z" fill="#344054"/>
</svg>
