<svg width="24" height="25" viewBox="0 0 24 25" fill="none" xmlns="http://www.w3.org/2000/svg">
<path d="M14 7.5708H16.3373C16.5818 7.5708 16.7041 7.5708 16.8192 7.59843C16.9213 7.62293 17.0188 7.66333 17.1083 7.71816C17.2092 7.78 17.2957 7.86648 17.4686 8.03943L21.5314 12.1022C21.7043 12.2751 21.7908 12.3616 21.8526 12.4625C21.9075 12.552 21.9479 12.6495 21.9724 12.7516C22 12.8667 22 12.989 22 13.2335V16.0708C22 16.5367 22 16.7697 21.9239 16.9535C21.8224 17.1985 21.6277 17.3932 21.3827 17.4947C21.1989 17.5708 20.9659 17.5708 20.5 17.5708M15.5 17.5708H14M14 17.5708V7.7708C14 6.6507 14 6.09064 13.782 5.66282C13.5903 5.2865 13.2843 4.98053 12.908 4.78879C12.4802 4.5708 11.9201 4.5708 10.8 4.5708H5.2C4.0799 4.5708 3.51984 4.5708 3.09202 4.78879C2.71569 4.98053 2.40973 5.2865 2.21799 5.66282C2 6.09064 2 6.6507 2 7.7708V15.5708C2 16.6754 2.89543 17.5708 4 17.5708M14 17.5708H10M10 17.5708C10 19.2277 8.65685 20.5708 7 20.5708C5.34315 20.5708 4 19.2277 4 17.5708M10 17.5708C10 15.9139 8.65685 14.5708 7 14.5708C5.34315 14.5708 4 15.9139 4 17.5708M20.5 18.0708C20.5 19.4515 19.3807 20.5708 18 20.5708C16.6193 20.5708 15.5 19.4515 15.5 18.0708C15.5 16.6901 16.6193 15.5708 18 15.5708C19.3807 15.5708 20.5 16.6901 20.5 18.0708Z" stroke="#344054" stroke-width="2" stroke-linecap="round" stroke-linejoin="round"/>
</svg>
