<svg width="24" height="25" viewBox="0 0 24 25" fill="none" xmlns="http://www.w3.org/2000/svg">
<path d="M12 24.0977C5.38294 24.0977 0 18.7147 0 12.0977C0 5.48059 5.38294 0.0976562 12 0.0976562C18.6171 0.0976562 24 5.48059 24 12.0977C24 18.7147 18.6171 24.0977 12 24.0977ZM12 0.912265C5.83261 0.912265 0.814609 5.93026 0.814609 12.0977C0.814609 18.2651 5.83261 23.283 12 23.283C18.1674 23.283 23.1854 18.2651 23.1854 12.0977C23.1854 5.93026 18.1674 0.912265 12 0.912265Z" fill="#344054"/>
<path d="M19.301 9.69541C19.2098 8.81482 19.0135 7.84136 18.2909 7.32978C17.7313 6.93307 16.9957 6.9184 16.3089 6.91922C14.8573 6.92003 13.4049 6.92166 11.9532 6.92248C10.557 6.92411 9.16075 6.92493 7.76451 6.92656C7.18125 6.92737 6.61428 6.88176 6.07256 7.13428C5.60742 7.35097 5.24329 7.76315 5.02416 8.22177C4.72031 8.85961 4.65678 9.58218 4.62012 10.2876C4.55251 11.5723 4.55984 12.8602 4.64048 14.144C4.69995 15.0808 4.85065 16.1161 5.57484 16.7133C6.21675 17.2419 7.12259 17.268 7.95512 17.2688C10.5977 17.2713 13.2411 17.2737 15.8845 17.2753C16.2234 17.2762 16.577 17.2696 16.9223 17.2322C17.6017 17.1589 18.2493 16.9642 18.686 16.4607C19.1267 15.9532 19.2399 15.247 19.3067 14.5782C19.4696 12.9555 19.468 11.3173 19.301 9.69541ZM10.425 14.3721V9.82249L14.3645 12.0969L10.425 14.3721Z" fill="#344054"/>
</svg>
