<svg width="1440" height="233" viewBox="0 0 1440 233" fill="none" xmlns="http://www.w3.org/2000/svg">
<path d="M1371.73 113.782C1367.17 125.723 1367.65 138.15 1381.34 143.101C1409.5 153.489 1415.81 126.208 1416.19 124.849L1371.73 113.782ZM1420.56 105.918L1378.62 95.5301C1380.47 85.3364 1377.65 75.1426 1377.65 63.1043C1377.65 46.7943 1390.56 14.8539 1411.15 19.9993C1434.64 25.8243 1438.04 51.9397 1437.16 64.5605C1436 77.1814 1421.24 104.171 1420.56 105.918ZM1302.7 192.711C1303 194.167 1309.4 221.35 1337.56 211.059C1351.15 206.011 1351.73 193.584 1347.17 181.643L1302.7 192.711ZM1281.83 132.519C1280.86 119.898 1284.16 93.6855 1307.75 87.8605C1328.24 82.521 1341.15 114.656 1341.15 131.063C1341.15 143.004 1338.43 153.198 1340.08 163.391L1298.34 173.779C1297.56 172.032 1282.9 145.043 1281.83 132.519Z" fill="#E1F6F7"/>
<path d="M104.27 113.782C108.833 125.723 108.347 138.15 94.6584 143.101C66.5042 153.489 60.1938 126.208 59.8055 124.849L104.27 113.782ZM55.4367 105.918L97.3767 95.5301C95.5322 85.3364 98.3476 75.1426 98.3476 63.1043C98.3476 46.7943 85.4355 14.8539 64.8538 19.9993C41.3597 25.8243 37.9617 51.9397 38.8355 64.5605C40.0005 77.1814 54.7572 104.171 55.4367 105.918ZM173.296 192.711C173.005 194.167 166.597 221.35 138.443 211.059C124.851 206.011 124.269 193.584 128.832 181.643L173.296 192.711ZM194.169 132.519C195.14 119.898 191.839 93.6855 168.248 87.8605C147.763 82.521 134.851 114.656 134.851 131.063C134.851 143.004 137.569 153.198 135.919 163.391L177.665 173.779C178.441 172.032 193.101 145.043 194.169 132.519Z" fill="#E1F6F7"/>
</svg>
