<?xml version="1.0" encoding="UTF-8"?>
<svg version="1.1" xmlns="http://www.w3.org/2000/svg" width="3705" height="1742">
<path d="M0 0 C68.97 0 137.94 0 209 0 C209.03867187 26.78800781 209.03867187 26.78800781 209.078125 54.1171875 C209.10328617 65.41928186 209.12945006 76.7213591 209.16015625 88.0234375 C209.17624781 93.9606112 209.1920912 99.89778548 209.20751953 105.83496094 C209.20946347 106.57905826 209.21140741 107.32315558 209.21341026 108.08980131 C209.24440555 120.09253597 209.26139838 132.0952515 209.27319422 144.09801863 C209.28561838 156.42203656 209.31314828 168.74595445 209.35461307 181.06990921 C209.37971237 188.67051416 209.3931199 196.27095314 209.39142957 203.87160011 C209.39139622 209.70614136 209.4124103 215.54048964 209.44116783 221.37496376 C209.44967369 223.76378375 209.45141213 226.15263912 209.44580269 228.54146767 C209.43915197 231.80949636 209.45711054 235.07652395 209.48101807 238.3444519 C209.47325765 239.28416962 209.46549723 240.22388733 209.45750165 241.19208133 C209.58243461 250.87534368 213.0218017 260.1014615 220 267 C226.1645196 271.10571286 232.60251902 272.74104818 240 272 C244.94803749 270.82189584 249.07144441 269.2999867 253 266 C253.66 266 254.32 266 255 266 C255.27714844 265.44183594 255.55429687 264.88367188 255.83984375 264.30859375 C256.63214452 262.73199525 257.43745523 261.16188483 258.25390625 259.59765625 C258.90166016 258.34275391 258.90166016 258.34275391 259.5625 257.0625 C259.99691406 256.22847656 260.43132812 255.39445313 260.87890625 254.53515625 C263.39488632 248.84571004 263.15190327 243.13269324 263.15821838 237.02165222 C263.16562535 235.50228789 263.16562535 235.50228789 263.17318195 233.95222932 C263.18855382 230.55433617 263.19691678 227.15646192 263.20532227 223.75854492 C263.21490103 221.32433913 263.22491111 218.890135 263.23532104 216.45593262 C263.25676955 211.21328114 263.2752138 205.97062821 263.29092598 200.72795677 C263.31364829 193.14795448 263.34178783 185.5679799 263.37124526 177.98800115 C263.41889223 165.68968553 263.46216425 153.39135858 263.50268555 141.09301758 C263.54205521 129.14704506 263.58349619 117.20108266 263.62768555 105.25512695 C263.63180981 104.13915206 263.63180981 104.13915206 263.63601738 103.00063223 C263.65995249 96.52894516 263.68404444 90.05725867 263.70815182 83.58557224 C263.81173529 55.72373434 263.90501864 27.86187163 264 0 C332.97 0 401.94 0 473 0 C473.04030303 59.88135262 473.04030303 59.88135262 473.04882812 85.046875 C473.05078564 90.79622399 473.05280602 96.54557295 473.05493164 102.29492188 C473.05519539 103.01538917 473.05545914 103.73585646 473.05573088 104.47815609 C473.06006588 116.07005766 473.06794172 127.66195421 473.0771528 139.25385281 C473.08654432 151.17331988 473.09206719 163.09278434 473.09408849 175.01225495 C473.09533078 181.6975037 473.09841485 188.38273978 473.10573006 195.06798553 C473.11257463 201.37489355 473.11459998 207.68178568 473.11310768 213.98869705 C473.11338025 216.28947918 473.11533489 218.59026191 473.11920547 220.8910408 C473.17629459 256.61266338 473.17629459 256.61266338 470.8125 272.1875 C470.68576904 273.03441406 470.55903809 273.88132812 470.4284668 274.75390625 C465.57508734 305.28456677 455.5032634 335.89595194 437 361 C436.61344238 361.5264209 436.22688477 362.0528418 435.82861328 362.59521484 C430.28864272 370.09538125 424.42062571 377.23120638 418 384 C417.54318848 384.48936035 417.08637695 384.9787207 416.61572266 385.48291016 C402.97554178 400.01945871 387.22299907 411.0902744 370 421 C369.3797998 421.36432129 368.75959961 421.72864258 368.12060547 422.10400391 C343.57199659 436.44814581 314.93437319 444.52303869 287 449 C285.64865967 449.22429687 285.64865967 449.22429687 284.27001953 449.453125 C252.50998865 454.48527604 217.70419604 454.30929012 186 449 C184.97471191 448.83371094 183.94942383 448.66742187 182.89306641 448.49609375 C138.82606377 441.12999518 98.62900098 423.38670914 65 394 C64.15308594 393.27683594 63.30617188 392.55367187 62.43359375 391.80859375 C57.48956501 387.53380748 53.18559584 383.01043024 49 378 C47.87658203 376.72576172 47.87658203 376.72576172 46.73046875 375.42578125 C10.58730204 333.70461401 -0.19931212 281.16385122 -0.11352539 227.39135742 C-0.11324297 224.90671286 -0.11340232 222.42206822 -0.1139679 219.93742371 C-0.1141947 214.61032164 -0.1113813 209.2832348 -0.10573006 203.9561367 C-0.09756491 196.25427334 -0.09499472 188.55241588 -0.09374207 180.85054866 C-0.09155939 168.35145289 -0.08492065 155.85236369 -0.07543945 143.35327148 C-0.06624499 131.21948275 -0.05918561 119.08569581 -0.05493164 106.9519043 C-0.05466364 106.1949775 -0.05439565 105.43805071 -0.05411953 104.65818673 C-0.05203982 98.73755538 -0.05008299 92.81692398 -0.04816496 86.89629257 C-0.03875002 57.93085568 -0.01862729 28.96543526 0 0 Z " fill="#FFFFFF" transform="translate(757,564)"/>
<path d="M0 0 C0.80641937 -0.00067474 1.61283875 -0.00134949 2.44369507 -0.00204468 C70.53816546 0.08765369 135.57210499 23.59007067 184.25 71.8125 C226.08329508 114.04468228 246.40314234 173.01434614 246.6875 231.75 C246.3894393 284.98037463 229.89589849 338.76343082 194.4375 379.25 C193.43396484 380.41789063 193.43396484 380.41789063 192.41015625 381.609375 C190.13313881 384.20441163 187.80173754 386.73402781 185.4375 389.25 C184.65294434 390.0855542 184.65294434 390.0855542 183.85253906 390.93798828 C174.47753771 400.83737216 164.51828035 409.32105048 153.4375 417.25 C152.84066406 417.68618652 152.24382813 418.12237305 151.62890625 418.57177734 C121.72854967 440.310557 85.66586849 453.16216813 49.4375 459.25 C48.59026367 459.40098145 47.74302734 459.55196289 46.87011719 459.70751953 C1.44322422 467.53188404 -47.01699961 462.65802054 -90.5625 448.25 C-91.57521973 447.91645508 -91.57521973 447.91645508 -92.60839844 447.57617188 C-119.78852444 438.43884903 -144.9663087 424.0496545 -166.5625 405.25 C-167.45839844 404.48300781 -168.35429687 403.71601562 -169.27734375 402.92578125 C-171.75846551 400.75027578 -174.1694591 398.52210622 -176.5625 396.25 C-177.35454834 395.49879883 -177.35454834 395.49879883 -178.16259766 394.73242188 C-215.96936684 358.62040214 -238.27655226 309.0645808 -243.5625 257.25 C-243.67335938 256.29738281 -243.78421875 255.34476563 -243.8984375 254.36328125 C-249.74150682 195.22194449 -233.37269899 133.9881089 -196.0625 87.5 C-152.47823097 35.66585147 -91.82669575 6.55482757 -24.5546875 0.69140625 C-16.3730308 0.09775436 -8.19985725 0.00623033 0 0 Z M-30.3125 199.9375 C-39.38737331 210.89066104 -40.68220515 223.5786137 -39.5625 237.25 C-37.23340297 248.65592087 -29.86819868 257.54989695 -20.5625 264.25 C-10.7424391 269.80644903 -0.43013269 271.55140161 10.625 269.1875 C21.22100846 266.08827223 30.56521847 259.813475 36.23046875 250.2109375 C41.81618456 239.30486055 43.24922533 228.0291033 40.75390625 215.9375 C36.853846 204.54479288 30.09507772 196.05485869 19.4375 190.5 C1.89505776 182.32054043 -16.91455153 185.84804451 -30.3125 199.9375 Z " fill="#FFFFFF" transform="translate(2701.5625,553.75)"/>
<path d="M0 0 C0.80179688 0.69222656 1.60359375 1.38445313 2.4296875 2.09765625 C27.24791907 23.94245752 45.86911241 50.16894866 60 80 C60.29084473 80.60295898 60.58168945 81.20591797 60.88134766 81.82714844 C68.93966396 98.66007583 74.81590567 116.77465469 79 134.9375 C79.1954541 135.78135254 79.3909082 136.62520508 79.59228516 137.49462891 C80.58441021 142.09514281 81.18706836 146.62130531 81.5546875 151.31469727 C81.63960449 152.38301285 81.72452148 153.45132843 81.81201172 154.55201721 C81.87404785 155.35985153 81.93608398 156.16768585 82 157 C58.82390464 158.43852499 35.6447221 159.61509809 12.44588041 160.61629152 C8.08042558 160.80525865 3.71510217 160.99721862 -0.65023804 161.18881226 C-8.85489744 161.54848195 -17.05966566 161.90560031 -25.26447999 162.26171625 C-34.63156463 162.66840946 -43.9985185 163.07807759 -53.36546445 163.48795056 C-72.57683628 164.32852535 -91.78836291 165.16551063 -111 166 C-111.54342041 164.96504395 -112.08684082 163.93008789 -112.64672852 162.86376953 C-113.36980003 161.49503561 -114.09303454 160.12638779 -114.81640625 158.7578125 C-115.35183044 157.73651245 -115.35183044 157.73651245 -115.89807129 156.69458008 C-121.09916905 146.87657663 -126.67666081 142.18406052 -136.875 137.75 C-148.44559131 134.97305808 -159.12691329 135.79313894 -169.65234375 141.53125 C-179.69216332 147.81240168 -185.7915676 156.53232061 -188.53125 168.078125 C-190.5698017 180.78509729 -188.35233786 192.3927209 -181 203 C-174.33203254 211.24565619 -166.21570068 215.50088009 -156 218 C-144.37806576 219.10196951 -133.87899186 217.73625314 -124.1875 210.9375 C-118.28047464 205.9524423 -114.39306118 199.38221196 -111.40576172 192.32226562 C-110.94186035 191.22591797 -110.47795898 190.12957031 -110 189 C-86.80353952 189.60789862 -63.62671289 190.47448575 -40.44588041 191.51489758 C-36.08058946 191.71026251 -31.71516808 191.90267226 -27.34976196 192.09544373 C-19.14492454 192.45818547 -10.94020145 192.82344637 -2.73552001 193.18969721 C6.63138514 193.60769956 15.9984198 194.02276438 25.36546445 194.43762696 C44.57711841 195.28856688 63.78861318 196.14305117 83 197 C82.52712324 200.69671152 82.05062194 204.39294728 81.57348633 208.08911133 C81.44025215 209.13101875 81.30701797 210.17292618 81.1697464 211.24640656 C80.27916005 218.12746647 79.24639434 224.92218847 77.6875 231.6875 C77.47367676 232.63206055 77.25985352 233.57662109 77.03955078 234.54980469 C67.24858798 276.75344939 48.41130354 316.11402993 18.36474609 347.56787109 C17.05051533 348.94699053 15.75339339 350.34235213 14.45703125 351.73828125 C-23.94405511 391.88223083 -82.78469921 410.74560422 -137.27148438 412.12597656 C-142.07674227 412.21904749 -146.88141723 412.24657306 -151.6875 412.25 C-152.9724939 412.25101212 -152.9724939 412.25101212 -154.28344727 412.25204468 C-169.02078877 412.23371039 -183.44511537 411.47288153 -198 409 C-198.95116699 408.83902832 -199.90233398 408.67805664 -200.88232422 408.51220703 C-253.12417569 399.23961242 -305.35581259 371.67626089 -338.76171875 329.7890625 C-340.19104485 328.00801742 -341.64961957 326.24980181 -343.14453125 324.5234375 C-369.03060134 294.39298475 -383.91406604 254.85108089 -390 216 C-390.11859375 215.26088379 -390.2371875 214.52176758 -390.359375 213.76025391 C-399.46907366 154.15408573 -383.40389193 91.51794776 -348.046875 43.046875 C-334.00398079 24.19842764 -317.20237155 7.54193601 -298 -6 C-297.38092773 -6.4424707 -296.76185547 -6.88494141 -296.12402344 -7.34082031 C-218.27148152 -62.62740805 -99.81802698 -68.37216621 0 0 Z " fill="#FFFFFF" transform="translate(2344,604)"/>
<path d="M0 0 C2.97624801 2.64641312 5.80767613 5.42415053 8.640625 8.22265625 C9.60355469 9.07730469 9.60355469 9.07730469 10.5859375 9.94921875 C28.91056204 26.56922705 37.47835609 54.3834158 38.75 78.27783203 C39.73145666 104.72195492 33.76087983 130.86189455 17.640625 152.22265625 C17.24391602 152.74956055 16.84720703 153.27646484 16.43847656 153.81933594 C0.19258549 175.05620673 -23.89376585 188.78011113 -50.3894043 192.50830078 C-79.65252871 196.09363482 -109.80284774 190.61692223 -133.62890625 172.45703125 C-140.12914152 167.13781154 -146.52026171 161.82393008 -151.53588867 155.04101562 C-152.06727951 154.32473999 -152.59867035 153.60846436 -153.14616394 152.8704834 C-153.54652359 152.32670044 -153.94688324 151.78291748 -154.359375 151.22265625 C-155.49272533 180.19014465 -155.57177583 209.15654456 -155.66269803 238.14267778 C-155.68263114 244.22785213 -155.70666273 250.31300901 -155.73062026 256.39816861 C-155.77782109 268.41973143 -155.82120764 280.44130467 -155.86206055 292.46289062 C-155.90166163 304.11361495 -155.94315299 315.76433014 -155.98706055 327.41503906 C-155.98981005 328.14521539 -155.99255956 328.87539172 -155.99539238 329.62769461 C-156.01933974 335.98306407 -156.04342647 342.338433 -156.06752682 348.69380188 C-156.17040331 375.87006869 -156.26415464 403.04635903 -156.359375 430.22265625 C-224.999375 430.22265625 -293.639375 430.22265625 -364.359375 430.22265625 C-364.359375 284.69265625 -364.359375 139.16265625 -364.359375 -10.77734375 C-298.359375 -10.77734375 -232.359375 -10.77734375 -164.359375 -10.77734375 C-164.029375 3.74265625 -163.699375 18.26265625 -163.359375 33.22265625 C-158.904375 26.29265625 -158.904375 26.29265625 -154.359375 19.22265625 C-151.40877489 15.75370747 -148.51608009 12.47324105 -145.359375 9.22265625 C-144.53566406 8.30613281 -144.53566406 8.30613281 -143.6953125 7.37109375 C-108.89896311 -30.16782505 -38.54741058 -32.86997319 0 0 Z " fill="#FFFFFF" transform="translate(1639.359375,574.77734375)"/>
<path d="M0 0 C19.29413921 -0.02371444 38.58827533 -0.04116311 57.88242626 -0.05181217 C66.84781071 -0.05689551 75.81318594 -0.0637791 84.77856445 -0.07543945 C92.62344362 -0.08563733 100.46831611 -0.09191064 108.31320173 -0.09408849 C112.43912261 -0.09535472 116.56502442 -0.09816163 120.69093895 -0.10573006 C149.81200414 -0.15289109 178.87192011 0.45041359 208 1 C208 101.65 208 202.3 208 306 C158.55203385 306 109.12433693 305.99363428 59.68182373 305.53643799 C53.45608581 305.47964405 47.23031757 305.42648368 41.00454843 305.37324238 C27.0029902 305.25341533 13.00147944 305.12869367 -1 305 C-1.02382684 278.81715757 -1.04121448 252.63431686 -1.05181217 226.45146561 C-1.05687325 214.28225583 -1.06373709 202.11305301 -1.07543945 189.94384766 C-1.13513671 126.62186751 -0.86840322 63.31642622 0 0 Z " fill="#FFFFFF" transform="translate(1707,700)"/>
<path d="M0 0 C4.33261315 1.54160421 6.5303022 4.84765166 9.125 8.4375 C9.60219482 9.09709717 10.07938965 9.75669434 10.57104492 10.4362793 C19.9679009 23.78970621 26.72826067 38.26008643 31 54 C31.33902344 55.23234375 31.67804688 56.4646875 32.02734375 57.734375 C38.65118033 86.6716887 33.29849424 116.5829743 18.06640625 141.78515625 C15.03558417 146.50040497 11.66883754 150.7699636 8 155 C7.33613281 155.80824219 6.67226562 156.61648438 5.98828125 157.44921875 C-11.6358811 178.20077405 -39.7106699 193.76418014 -67 196 C-99.54871649 197.81072308 -129.30933289 189.9341333 -154 168 C-155.16595703 167.03126953 -155.16595703 167.03126953 -156.35546875 166.04296875 C-167.10644325 156.95737756 -176.94401939 144.72498994 -183 132 C-174.26872591 125.37222263 -165.47347922 118.86476809 -156.49804688 112.57104492 C-149.03384821 107.33475024 -141.64936185 101.99067169 -134.26611328 96.64111328 C-130.513552 93.92351827 -126.75656581 91.21205527 -123 88.5 C-121.49997854 87.41669638 -119.99997854 86.33336304 -118.5 85.25 C-91.5 65.75 -64.5 46.25 -37.5 26.75 C-36.7565332 26.2130249 -36.01306641 25.6760498 -35.24707031 25.12280273 C-33.75693907 24.0466508 -32.26670578 22.97064015 -30.77636719 21.89477539 C-26.87449825 19.07775591 -22.97477897 16.25782345 -19.078125 13.43359375 C-18.26988281 12.84835937 -17.46164062 12.263125 -16.62890625 11.66015625 C-15.08918228 10.54518372 -13.55007825 9.42935437 -12.01171875 8.3125 C-8.06114944 5.45324818 -4.07838225 2.67403364 0 0 Z " fill="#FFFFFF" transform="translate(1885,474)"/>
<path d="M0 0 C5.61 0 11.22 0 17 0 C23.93 28.71 30.86 57.42 38 87 C41.42375 74.13 44.8475 61.26 48.375 48 C49.45313965 43.94847656 50.5312793 39.89695312 51.64208984 35.72265625 C52.61477931 32.06508448 52.61477931 32.06508448 53.58731079 28.4074707 C54.01783754 26.78859742 54.4485975 25.16978615 54.87954712 23.55102539 C55.5353283 21.08755054 56.19035024 18.62387489 56.84521484 16.16015625 C57.03475424 15.44884048 57.22429363 14.73752472 57.41957664 14.00465393 C58.65682926 9.34569557 59.83058678 4.67765287 61 0 C66.61 0 72.22 0 78 0 C81.16767531 10.01098979 83.92309132 20.07453031 86.546875 30.23828125 C86.96688808 31.85644531 87.38716058 33.47454206 87.80767822 35.09257507 C88.90180575 39.30527445 89.99245999 43.51886513 91.08233643 47.73266602 C92.19988624 52.05084824 93.32079717 56.36815775 94.44140625 60.68554688 C96.63085212 69.12285832 98.81662104 77.56111655 101 86 C105.69157813 69.71527872 109.68517693 53.26789007 113.70202637 36.80737305 C115.15313159 30.86265818 116.60841253 24.91896611 118.06490326 18.97556877 C118.56965762 16.91349801 119.07268378 14.85101138 119.57550049 12.78846741 C119.87961853 11.54544357 120.18373657 10.30241974 120.49707031 9.02172852 C120.76400696 7.92796402 121.0309436 6.83419952 121.30596924 5.70729065 C121.7987639 3.78498626 122.37245711 1.88262866 123 0 C128.61 0 134.22 0 140 0 C131.75661561 32.7850194 122.9684081 65.40631172 114 98 C105.75 98 97.5 98 89 98 C84.61632181 82.52720854 80.63334608 66.96447531 76.6875 51.375 C76.03599212 48.80724476 75.38430072 46.23953608 74.73242188 43.671875 C73.15283477 37.44845106 71.57550254 31.22445916 70 25 C65.00889111 41.99361852 60.60807601 59.11098249 56.30004883 76.28857422 C55.44633001 79.68788877 54.58854105 83.08615727 53.73046875 86.484375 C53.47009323 87.52889832 53.20971771 88.57342163 52.94145203 89.64959717 C52.70062393 90.60279846 52.45979584 91.55599976 52.21166992 92.53808594 C52.00104416 93.37853455 51.7904184 94.21898315 51.57341003 95.0848999 C51 97 51 97 50 98 C48.21928754 98.08726223 46.4351686 98.10699041 44.65234375 98.09765625 C43.57275391 98.09443359 42.49316406 98.09121094 41.38085938 98.08789062 C40.24455078 98.07951172 39.10824219 98.07113281 37.9375 98.0625 C36.79732422 98.05798828 35.65714844 98.05347656 34.48242188 98.04882812 C31.65489649 98.03699747 28.8274736 98.0205141 26 98 C23.8113985 92.40913625 22.04861686 86.85531089 20.5480957 81.04541016 C20.3233255 80.18914032 20.0985553 79.33287048 19.86697388 78.45065308 C19.13241017 75.64786018 18.40395293 72.84352222 17.67578125 70.0390625 C17.16470473 68.08222715 16.65332205 66.12547174 16.14164734 64.16879272 C15.07411413 60.08277996 14.00946339 55.9960309 12.94702148 51.90869141 C11.58299636 46.66160793 10.2130088 41.41610407 8.84104633 36.17109108 C7.78655242 32.1379855 6.73454653 28.10423442 5.68337059 24.07026291 C5.1788169 22.13473655 4.6736314 20.19937479 4.16781044 18.26417923 C3.46400568 15.56948856 2.76339786 12.87398755 2.0637207 10.17822266 C1.85336685 9.37511658 1.643013 8.5720105 1.42628479 7.74456787 C0 2.22885597 0 2.22885597 0 0 Z " fill="#FFFFFF" transform="translate(1041,1130)"/>
<path d="M0 0 C3.65734178 3.89651399 4.28150728 7.67381186 4.5 12.9375 C4.13519757 21.56400441 1.4347592 25.90210897 -4.8125 31.75 C-8.67597574 35.06400364 -12.45365042 37.72682521 -17 40 C-13.12199826 44.96868973 -8.79704234 48.93084526 -4 53 C-2.49794116 54.31014331 -0.99786307 55.6225618 0.5 56.9375 C1.1703125 57.52402344 1.840625 58.11054687 2.53125 58.71484375 C3.0159375 59.13894531 3.500625 59.56304688 4 60 C6.61093545 58.69453228 6.68996636 57.72009785 7.625 55 C9.88778406 47.7751717 9.54636409 42.09126891 7 35 C8.76128344 33.63343543 10.53436088 32.28205915 12.3125 30.9375 C13.29863281 30.18339844 14.28476563 29.42929688 15.30078125 28.65234375 C16.19152344 28.10707031 17.08226563 27.56179688 18 27 C21 28 21 28 22.625 31.25 C26.66328174 42.26349566 26.5694282 55.20438899 21.97265625 65.99609375 C21.32298107 67.33458118 20.66537605 68.6692479 20 70 C22.58267413 71.45951119 25.16610741 72.91764881 27.75 74.375 C28.47960938 74.7875 29.20921875 75.2 29.9609375 75.625 C30.66992188 76.02460937 31.37890625 76.42421875 32.109375 76.8359375 C33.08342285 77.38580322 33.08342285 77.38580322 34.07714844 77.94677734 C36.02837191 79.01554043 38.00410556 80.01758503 40 81 C38.68938409 85.23429756 37.05643741 89.07407404 35 93 C28.25886516 91.1403766 22.75110898 88.31533785 16.87451172 84.60546875 C13.61944902 82.57510182 13.61944902 82.57510182 9.90625 82.0546875 C7.38887366 83.30305855 5.13211498 84.78842352 2.8125 86.375 C-9.17565909 94.18570979 -23.47504504 95.969721 -37.46484375 93.3515625 C-46.23601314 90.71005203 -53.46280261 86.39368762 -58 78.25 C-61.52562329 70.22280234 -61.92920055 62.22965869 -59 54 C-55.16458644 46.77172059 -48.57458631 41.06590398 -41 38 C-40.34 38 -39.68 38 -39 38 C-39.56589844 37.09636719 -40.13179687 36.19273438 -40.71484375 35.26171875 C-41.4558918 34.07041365 -42.19676827 32.87900181 -42.9375 31.6875 C-43.31068359 31.09259766 -43.68386719 30.49769531 -44.06835938 29.88476562 C-47.26683943 24.72685634 -48.17273985 21.2331071 -48.25 15.1875 C-48.27578125 13.98480469 -48.3015625 12.78210937 -48.328125 11.54296875 C-47.83180817 6.18392869 -45.88668216 2.26295685 -41.75 -1.1875 C-29.92634176 -10.65634161 -11.17612232 -10.58661257 0 0 Z M-32 9 C-34.52230514 12.78345771 -34.83835198 15.63062313 -34 20 C-31.2128183 27.03491079 -31.2128183 27.03491079 -26 32 C-19.56550311 29.12993664 -13.72926883 25.06006185 -10 19 C-8.76059573 15.35469331 -8.64111745 13.85733052 -10.125 10.3125 C-12.7574321 7.06583374 -14.89198432 5.31951439 -19.11328125 4.6796875 C-24.5668933 4.40471546 -27.73358919 5.35794199 -32 9 Z M-36.4375 48.625 C-37.40558594 49.29789063 -38.37367188 49.97078125 -39.37109375 50.6640625 C-42.83950004 53.74594505 -44.58766158 56.77114368 -45.43359375 61.34375 C-45.44334129 66.7243901 -44.69794961 69.82795428 -41 74 C-33.46078512 80.32265975 -26.72758348 80.74827565 -17 80 C-10.47144029 78.41940133 -6.61216581 75.88776095 -2 71 C-2.62003906 70.52433594 -3.24007812 70.04867188 -3.87890625 69.55859375 C-9.99836861 64.72181345 -15.61499111 59.57779617 -21.125 54.0625 C-21.78830322 53.39984131 -22.45160645 52.73718262 -23.13500977 52.05444336 C-27.86480604 47.27038792 -27.86480604 47.27038792 -29 45 C-32.14776401 45 -33.90663362 46.83020233 -36.4375 48.625 Z " fill="#FFFFFF" transform="translate(2314,1136)"/>
<path d="M0 0 C8.91 0 17.82 0 27 0 C46.32673644 40.57186065 46.32673644 40.57186065 54.54956055 58.40136719 C58.96481049 67.96864308 63.48812906 77.47493912 68 87 C68.33 58.29 68.66 29.58 69 0 C73.95 0 78.9 0 84 0 C84 32.34 84 64.68 84 98 C74.76 98 65.52 98 56 98 C50.48320966 87.14359198 45.32179249 76.21490488 40.4375 65.0625 C32.78436901 47.63390667 24.87803974 30.33168744 17 13 C16.67 41.05 16.34 69.1 16 98 C10.72 98 5.44 98 0 98 C0 65.66 0 33.32 0 0 Z " fill="#FFFFFF" transform="translate(1535,1130)"/>
<path d="M0 0 C7.24134377 6.58869047 10.33187613 14.96006316 12.0078125 24.40625 C4.0878125 25.39625 4.0878125 25.39625 -3.9921875 26.40625 C-4.58 24.364375 -4.58 24.364375 -5.1796875 22.28125 C-7.55580022 15.32730542 -10.61319994 11.91869431 -17.0546875 8.59375 C-26.45842656 4.116469 -38.15384036 3.71721644 -48.0546875 7.03125 C-56.49207883 10.66173172 -61.38915186 15.98978394 -64.9921875 24.40625 C-69.1821667 36.05962966 -67.82360938 49.21295583 -62.9921875 60.40625 C-59.10193855 67.51919038 -53.75068198 71.8158098 -46.09375 74.375 C-35.26905232 77.31975403 -24.84844803 77.56087872 -14.62109375 72.15234375 C-7.63426919 67.30515167 -4.6362916 61.33856229 -1.9921875 53.40625 C-9.9121875 53.40625 -17.8321875 53.40625 -25.9921875 53.40625 C-25.9921875 49.44625 -25.9921875 45.48625 -25.9921875 41.40625 C-13.1221875 41.40625 -0.2521875 41.40625 13.0078125 41.40625 C13.0078125 57.24625 13.0078125 73.08625 13.0078125 89.40625 C9.3778125 89.40625 5.7478125 89.40625 2.0078125 89.40625 C1.0178125 84.12625 0.0278125 78.84625 -0.9921875 73.40625 C-2.3121875 75.38625 -3.6321875 77.36625 -4.9921875 79.40625 C-12.74204317 88.03084186 -21.02840456 91.24476973 -32.4296875 92.28125 C-45.86925653 92.84009618 -58.387915 90.1812939 -68.890625 81.44140625 C-78.99127191 71.65992476 -82.95830462 58.73223996 -83.28466797 44.93530273 C-83.41980463 28.70736714 -80.60013837 14.67959233 -69.4921875 2.21875 C-51.13556286 -15.08491338 -19.34339765 -15.47471812 0 0 Z " fill="#FFFFFF" transform="translate(1711.9921875,1138.59375)"/>
<path d="M0 0 C11.07697287 8.43456522 16.92494345 18.99277349 19.49609375 32.5390625 C21.77823297 49.62857012 19.06168363 65.56615769 10 80.3125 C2.62894227 89.92981686 -8.22193391 94.7174052 -20 96.3125 C-36.76013147 97.19729882 -51.22070721 95.41305983 -64.1875 83.8125 C-74.32272415 73.0810862 -77.40570127 59.32370449 -77.3125 45 C-77.30686035 44.08428223 -77.3012207 43.16856445 -77.29541016 42.22509766 C-77.05590855 28.78218049 -73.83597232 15.14847232 -64 5.3125 C-47.07164224 -8.80523347 -19.20951286 -11.84916687 0 0 Z M-55 19.3125 C-61.8615059 29.85791874 -63.58271459 41.93986204 -61.5 54.2734375 C-59.16861661 63.73143602 -55.2754317 71.81322808 -47 77.3125 C-38.64076902 81.86720919 -28.62950187 82.64822186 -19.36328125 80.78125 C-10.29130629 77.94722047 -3.1419157 72.30295976 1.296875 63.83984375 C6.13892545 51.9276979 5.976205 39.44427875 2 27.3125 C-1.74325601 18.70998619 -7.31853327 13.02583958 -16 9.4375 C-30.01831524 5.38020599 -45.29229882 7.98324517 -55 19.3125 Z " fill="#FFFFFF" transform="translate(1260,1134.6875)"/>
<path d="M0 0 C11.44332759 8.71352616 17.03228665 19.38838817 19.49609375 33.3828125 C21.72306183 50.74971089 19.12962883 68.40070437 8.26953125 82.5703125 C-0.33664603 91.66883402 -11.49554167 95.86353367 -23.84765625 96.515625 C-39.39651266 96.80618908 -52.25987081 94.48338665 -64.1875 83.8125 C-74.32272415 73.0810862 -77.40570127 59.32370449 -77.3125 45 C-77.30686035 44.08428223 -77.3012207 43.16856445 -77.29541016 42.22509766 C-77.05590855 28.78218049 -73.83597232 15.14847232 -64 5.3125 C-47.07164224 -8.80523347 -19.20951286 -11.84916687 0 0 Z M-55 19.3125 C-61.98673215 30.05037842 -63.36533789 41.96165644 -61.53515625 54.49609375 C-59.4859219 64.01472668 -55.33657453 71.5454077 -47.18359375 77.09375 C-38.53994214 81.91811369 -28.61824642 82.76402141 -19.0078125 80.65625 C-10.39254347 77.88790871 -3.53816547 72.64489959 0.96484375 64.72265625 C5.95027539 53.11506635 6.23305713 40.38037361 2.3125 28.4375 C-1.06118154 20.21490699 -5.78005191 14.03964694 -14 10.3125 C-28.5955879 5.35419024 -44.64981171 7.23343839 -55 19.3125 Z " fill="#FFFFFF" transform="translate(2569,1134.6875)"/>
<path d="M0 0 C0.61230469 0.41894531 1.22460938 0.83789062 1.85546875 1.26953125 C10.4270098 7.83536953 15.79586613 18.21553642 17.70703125 28.71923828 C20.20653893 48.17790554 17.81451479 64.90414945 6.8125 81.25 C-4.08225219 91.90264659 -16.81648446 95.27056994 -31.68041992 95.24658203 C-43.85052566 95.04460006 -55.26065809 91.98352786 -64.5078125 83.7734375 C-75.15491412 72.70466849 -78.85269667 58.57866995 -79.375 43.5 C-78.84525971 29.36652898 -75.49913612 14.95550318 -65.9375 4.0625 C-48.78635097 -11.12301172 -18.74993729 -13.11368359 0 0 Z M-55 16 C-63.77302712 28.43021674 -64.79015009 41.86262324 -62.41796875 56.62109375 C-60.05448102 64.92028125 -55.0089887 71.98340457 -47.5546875 76.47265625 C-45.38393719 77.4720611 -43.28479514 78.30538733 -41 79 C-40.08347656 79.28230469 -40.08347656 79.28230469 -39.1484375 79.5703125 C-28.83527947 81.63294411 -18.55849839 80.23382516 -9.71875 74.52734375 C-3.0969943 69.30159252 0.97689876 61.69342125 2.71875 53.453125 C4.22022066 40.35696427 3.44828435 27.68120965 -5 17 C-10.67768308 10.72695885 -17.41330535 7.46054926 -25.8125 6.6171875 C-36.69653451 6.13955499 -47.23997803 7.69858115 -55 16 Z " fill="#FFFFFF" transform="translate(968,1136)"/>
<path d="M0 0 C7.45770294 7.85969808 9.23204786 14.37666207 10 25 C4.72 25 -0.56 25 -6 25 C-6.226875 23.618125 -6.45375 22.23625 -6.6875 20.8125 C-7.71939285 16.2158864 -9.19829501 13.93768113 -13 11 C-21.52843859 6.12660652 -31.5823695 5.440047 -41.1015625 7.75390625 C-45.56979055 9.4344345 -48.50218583 10.78301126 -51 15 C-51.66183342 18.08304069 -51.56620305 20.90253626 -51 24 C-44.75302555 33.37046167 -29.22752302 34.83663054 -19.07617188 37.1796875 C-7.99202507 39.89263448 2.67449912 43.94358991 9 54 C12.02430794 61.12483357 11.72655542 68.57557625 9.09375 75.73046875 C5.27773697 83.64869578 -0.96297624 87.91435695 -9 91 C-23.5564771 95.7492864 -40.60349513 95.20310801 -54.5625 88.6875 C-62.884941 83.98169024 -68.36967135 78.37141487 -71.6328125 69.2265625 C-72.18784001 65.86097014 -72 62.41105079 -72 59 C-66.72 59 -61.44 59 -56 59 C-55.649375 60.52625 -55.29875 62.0525 -54.9375 63.625 C-53.29010425 69.06756445 -50.94791414 72.18888418 -46 75 C-40.30072851 77.7117633 -35.27060934 78.47130629 -29 78.375 C-28.24460937 78.38660156 -27.48921875 78.39820313 -26.7109375 78.41015625 C-20.26227941 78.37691574 -14.44847805 77.26013359 -9.5625 72.75 C-7.63093331 69.35044262 -7.06981152 66.90944501 -7 63 C-8.86360235 57.78191342 -13.20778932 55.32296998 -18 53 C-23.89969984 51.04683583 -29.91647022 49.55116511 -35.93774414 48.02319336 C-59.3127258 42.03550001 -59.3127258 42.03550001 -65.91796875 32.00390625 C-69.21762127 25.89299742 -70.00861488 19.395205 -68.46484375 12.66796875 C-65.97824474 4.47442119 -62.02202464 0.56912512 -54.65625 -3.64453125 C-38.147945 -12.06862219 -14.76904863 -11.99661319 0 0 Z " fill="#FFFFFF" transform="translate(1841,1137)"/>
<path d="M0 0 C58.51677852 0 58.51677852 0 68 9 C74.6562996 17.32438431 74.57658104 25.69628321 74 36 C72.89642663 42.55597401 69.98213993 47.5913438 65 52 C61.625 53.9375 61.625 53.9375 59 55 C59.763125 55.53625 60.52625 56.0725 61.3125 56.625 C67.09654476 61.73648142 67.6772692 67.97958372 68.5625 75.25 C68.78532005 77.04783949 69.01543908 78.84479399 69.25390625 80.640625 C69.35002197 81.42985352 69.4461377 82.21908203 69.54516602 83.03222656 C69.86814347 85.22127631 69.86814347 85.22127631 72 87 C75.58343976 87.16677282 75.58343976 87.16677282 79 87 C79.2852983 90.37919987 79.40733393 93.62727503 79 97 C76.70594031 99.59993431 75.02255209 99.86899083 71.65234375 100.30078125 C67.28021782 100.53158729 64.53974027 100.2649634 60.5625 98.3125 C55.57809436 93.81437783 54.28795704 89.62898063 53.87670898 83.01806641 C53.75579874 80.10476931 53.64203411 77.19231486 53.5703125 74.27734375 C53.36564182 69.51022254 52.58050653 66.1501577 50 62 C45.00058448 58.08153919 39.3221173 57.9153485 33.1640625 57.68359375 C31.72474365 57.62643188 31.72474365 57.62643188 30.25634766 57.56811523 C29.05800293 57.52501221 27.8596582 57.48190918 26.625 57.4375 C22.78875 57.293125 18.9525 57.14875 15 57 C15 70.53 15 84.06 15 98 C10.05 98 5.1 98 0 98 C0 65.66 0 33.32 0 0 Z M15 13 C15 23.89 15 34.78 15 46 C37.64434293 47.53522951 37.64434293 47.53522951 58 40 C60.82238528 34.98152242 60.51040665 29.59800838 60 24 C58.49029188 19.1156502 56.32356597 17.14378819 52.01171875 14.76171875 C47.17339207 12.92973098 42.18629571 12.87970666 37.0703125 12.90234375 C35.90773926 12.90484131 34.74516602 12.90733887 33.54736328 12.90991211 C32.0879834 12.91901611 30.62860352 12.92812012 29.125 12.9375 C24.46375 12.958125 19.8025 12.97875 15 13 Z " fill="#FFFFFF" transform="translate(1292,1130)"/>
<path d="M0 0 C7.99810375 6.55029235 13.75385289 14.82842325 16 25 C16 26.65 16 28.3 16 30 C10.72 30 5.44 30 0 30 C-0.9765625 27.265625 -1.953125 24.53125 -2.9296875 21.796875 C-4.47116362 17.12166218 -4.47116362 17.12166218 -7.875 13.87890625 C-8.57625 13.58886719 -9.2775 13.29882812 -10 13 C-10.99 12.48759766 -10.99 12.48759766 -12 11.96484375 C-12.99 11.45630859 -12.99 11.45630859 -14 10.9375 C-14.66 10.59589844 -15.32 10.25429687 -16 9.90234375 C-23.95499972 6.31327161 -34.79146287 6.89279035 -42.9375 9.5625 C-50.40124739 12.72792858 -56.03357257 17.47762277 -59.2578125 24.99609375 C-63.95699928 37.68389805 -63.42181635 51.60484124 -58 64 C-54.19040285 71.65703798 -47.8358318 75.05136017 -40 78 C-29.78268135 80.09163471 -19.86992391 79.09505079 -10.5625 74.1875 C-4.22242053 68.77523704 -1.83331802 63.76539013 1 56 C6.28 56 11.56 56 17 56 C16.80708676 65.64566207 11.78698124 75.45663129 5.3125 82.5 C-6.96075078 93.60550459 -21.79090738 94.87173239 -37.50048828 94.19091797 C-49.09276149 93.30547573 -59.90292734 87.63442125 -67.875 79.25 C-79.25402796 65.19676402 -79.11338717 48.16286329 -78 31 C-77.38898537 26.35668048 -76.02669529 22.22386028 -74 18 C-73.36384766 16.66001953 -73.36384766 16.66001953 -72.71484375 15.29296875 C-66.89067031 4.47201141 -57.53355838 -2.27278031 -45.96875 -5.96875 C-30.35140015 -10.06261841 -13.77135766 -8.96415524 0 0 Z " fill="#FFFFFF" transform="translate(868,1136)"/>
<path d="M0 0 C7.77505076 6.99934964 11.87209148 17.22964036 13.3125 27.3125 C8.0325 27.3125 2.7525 27.3125 -2.6875 27.3125 C-3.244375 25.78625 -3.80125 24.26 -4.375 22.6875 C-7.62485313 14.71467693 -11.60383087 10.95017914 -19.28515625 7.29296875 C-27.67356862 3.86940533 -38.15674895 4.08602843 -46.6875 6.9375 C-54.6118094 10.32355505 -59.10102165 14.75223485 -62.6875 22.59765625 C-67.22084075 34.90496804 -66.83601236 48.70861792 -61.62109375 60.78125 C-57.22853693 68.31963134 -51.05421105 73.01036595 -42.6875 75.3125 C-32.23980589 77.70676323 -22.07455203 76.1901071 -12.8125 70.75 C-6.8242581 66.46808509 -4.42502691 60.26260763 -2.6875 53.3125 C2.5925 53.3125 7.8725 53.3125 13.3125 53.3125 C12.97225405 63.51987854 8.64904817 73.14656923 1.3125 80.3125 C-12.015125 90.8259253 -26.23707019 92.48890447 -42.6875 91.3125 C-54.75471312 89.6304202 -65.00446853 83.72421355 -72.6875 74.3125 C-82.17074979 60.03608592 -83.24339795 44.18162205 -81.2265625 27.5 C-78.82095615 15.72667953 -73.25644827 5.71936812 -63.6875 -1.6875 C-43.79156015 -13.98723586 -18.95467618 -14.61863915 0 0 Z " fill="#FFFFFF" transform="translate(2112.6875,1138.6875)"/>
<path d="M0 0 C7.26249546 6.62366485 10.90854664 14.83215918 13.3125 24.25 C13.3125 25.24 13.3125 26.23 13.3125 27.25 C8.0325 27.25 2.7525 27.25 -2.6875 27.25 C-3.368125 25.39375 -4.04875 23.5375 -4.75 21.625 C-7.96520487 13.99113369 -11.76642826 10.45551309 -19.125 6.875 C-28.66097091 3.41530324 -40.10177809 4.00440343 -49.35546875 8 C-56.85783242 12.02136746 -60.77860426 17.2590257 -63.6875 25.25 C-67.06069692 37.36665759 -66.57682878 50.98732593 -60.6875 62.25 C-55.78784784 69.45966187 -50.22795518 73.6073678 -41.75 75.5 C-31.37353678 77.23461961 -22.009518 76.08940908 -12.8125 70.6875 C-6.8242581 66.40558509 -4.42502691 60.20010763 -2.6875 53.25 C2.5925 53.25 7.8725 53.25 13.3125 53.25 C12.98142471 63.18225858 8.87885992 72.41895924 2.0703125 79.7265625 C-10.3013106 90.44863585 -24.5530678 92.01048776 -40.23339844 91.42919922 C-51.6377351 90.5964512 -63.20849348 84.84027119 -71.0234375 76.48828125 C-81.72463457 62.09441759 -83.29704531 45.70796285 -81.22265625 28.36328125 C-78.94437057 16.10907011 -73.64565021 5.95813085 -63.6875 -1.75 C-43.86299173 -14.00557663 -18.81221298 -14.79566206 0 0 Z " fill="#FFFFFF" transform="translate(2473.6875,1138.75)"/>
<path d="M0 0 C4.95 0 9.9 0 15 0 C15.33 15.18 15.66 30.36 16 46 C19.155625 42.865 22.31125 39.73 25.5625 36.5 C26.5429126 35.52869141 27.5233252 34.55738281 28.53344727 33.55664062 C34.28373912 27.82442229 39.73704515 21.95692433 44.90209961 15.69335938 C58.12220194 -0.1252928 58.12220194 -0.1252928 66.62109375 -1.1640625 C71.50556102 -1.31149224 76.18818541 -0.8136889 81 0 C80.40328467 4.54421673 80.40328467 4.54421673 78.6796875 6.4921875 C77.78636719 7.17667969 77.78636719 7.17667969 76.875 7.875 C72.46385945 11.48990579 68.49894299 15.44382352 64.5 19.5 C60.01627096 24.02997008 55.52516564 28.45453734 50.65234375 32.5703125 C47.95471212 34.90443349 45.49013258 37.4476141 43 40 C44.35086333 42.86679674 45.88617524 45.36480222 47.765625 47.9140625 C48.31895508 48.66598877 48.87228516 49.41791504 49.44238281 50.19262695 C50.33715332 51.39665161 50.33715332 51.39665161 51.25 52.625 C51.8697168 53.46313232 52.48943359 54.30126465 53.12792969 55.16479492 C57.42113982 60.94524153 61.80848662 66.64555111 66.25 72.3125 C70.54062454 77.7953643 74.78525177 83.30258726 78.875 88.9375 C79.29813477 89.51089111 79.72126953 90.08428223 80.15722656 90.67504883 C83 94.64464927 83 94.64464927 83 98 C76.94768673 99.11164938 70.96228752 99.92872181 65 98 C59.67066589 94.12197533 56.28716672 88.14827984 52.77246094 82.68310547 C49.71839988 78.05994692 46.30250801 73.71140765 42.9375 69.3125 C38.8861987 63.92481183 34.89578239 58.50122768 31 53 C24.93264945 55.63167616 19.43695157 60.32483326 16 66 C14.2385531 71.38132642 14.63464387 77.1003212 14.8125 82.6875 C14.81947503 84.17902143 14.82146232 85.67057487 14.81835938 87.16210938 C14.81233088 90.78121877 14.90797706 94.37686438 15 98 C10.05 98 5.1 98 0 98 C0 65.66 0 33.32 0 0 Z " fill="#FFFFFF" transform="translate(1384,1130)"/>
<path d="M0 0 C8.58 0 17.16 0 26 0 C27.29292969 3.82980469 28.58585937 7.65960937 29.91796875 11.60546875 C31.67334879 16.79986173 33.43026846 21.99373317 35.1875 27.1875 C35.41391678 27.85687969 35.64033356 28.52625938 35.87361145 29.21592331 C42.25330051 48.07520885 48.69273663 66.90994483 55.39135742 85.65893555 C55.76634621 86.71324265 55.76634621 86.71324265 56.14891052 87.78884888 C56.8045551 89.63111987 57.46411148 91.47199744 58.12402344 93.31274414 C59 96 59 96 59 98 C53.39 98 47.78 98 42 98 C39.03 89.09 36.06 80.18 33 71 C13.2 70.505 13.2 70.505 -7 70 C-7.66 72.97 -8.32 75.94 -9 79 C-9.47431398 80.68659859 -9.9712995 82.36730063 -10.5078125 84.03515625 C-10.77207031 84.86337891 -11.03632812 85.69160156 -11.30859375 86.54492188 C-11.57800781 87.37572266 -11.84742188 88.20652344 -12.125 89.0625 C-12.40214844 89.92810547 -12.67929688 90.79371094 -12.96484375 91.68554688 C-13.63968111 93.79150483 -14.31933107 95.89591964 -15 98 C-20.61 98 -26.22 98 -32 98 C-29.30410147 87.45839991 -25.81961337 77.20470725 -22.36328125 66.89453125 C-21.71711847 64.95977929 -21.07122334 63.02493792 -20.42558289 61.0900116 C-18.73662094 56.03071293 -17.04405695 50.97262667 -15.35070801 45.91479492 C-13.6189734 40.74015609 -11.89069229 35.56436418 -10.16210938 30.38867188 C-6.77809451 20.25799033 -3.38994963 10.12869719 0 0 Z M13 9 C12.65219482 10.04341553 12.30438965 11.08683105 11.94604492 12.16186523 C8.77807617 21.66577148 5.61010742 31.16967773 2.44213867 40.67358398 C2.20844574 41.37852997 1.97475281 42.08347595 1.73397827 42.80978394 C1.2155508 44.35678911 0.68690525 45.90038798 0.15103149 47.44143677 C-0.123992 48.23943695 -0.3990155 49.03743713 -0.68237305 49.85961914 C-0.93448044 50.58113663 -1.18658783 51.30265411 -1.44633484 52.04603577 C-2.13631085 54.14257869 -2.13631085 54.14257869 -2 57 C8.23 57 18.46 57 29 57 C24.39232779 40.87314726 19.19145042 24.94614071 14 9 C13.67 9 13.34 9 13 9 Z " fill="#FFFFFF" transform="translate(1970,1130)"/>
<path d="M0 0 C22.77 0 45.54 0 69 0 C69 4.62 69 9.24 69 14 C51.51 14 34.02 14 16 14 C16 23.24 16 32.48 16 42 C29.53 42 43.06 42 57 42 C57 46.29 57 50.58 57 55 C43.47 55 29.94 55 16 55 C16 65.23 16 75.46 16 86 C34.15 86 52.3 86 71 86 C71 89.96 71 93.92 71 98 C47.57 98 24.14 98 0 98 C0 65.66 0 33.32 0 0 Z " fill="#FFFFFF" transform="translate(2761,1130)"/>
<path d="M0 0 C22.77 0 45.54 0 69 0 C69 4.62 69 9.24 69 14 C51.18 14 33.36 14 15 14 C15 23.24 15 32.48 15 42 C28.86 42 42.72 42 57 42 C57 46.29 57 50.58 57 55 C43.14 55 29.28 55 15 55 C15 65.23 15 75.46 15 86 C33.15 86 51.3 86 70 86 C70 89.96 70 93.92 70 98 C46.9 98 23.8 98 0 98 C0 65.66 0 33.32 0 0 Z " fill="#FFFFFF" transform="translate(2137,1130)"/>
<path d="M0 0 C22.44 0 44.88 0 68 0 C68 4.62 68 9.24 68 14 C50.51 14 33.02 14 15 14 C15 23.24 15 32.48 15 42 C28.86 42 42.72 42 57 42 C57 46.29 57 50.58 57 55 C43.14 55 29.28 55 15 55 C15 65.23 15 75.46 15 86 C33.15 86 51.3 86 70 86 C70 89.96 70 93.92 70 98 C46.9 98 23.8 98 0 98 C0 65.66 0 33.32 0 0 Z " fill="#FFFFFF" transform="translate(2843,1130)"/>
<path d="M0 0 C55.73214286 0 55.73214286 0 64.58984375 8.53125 C71.75046062 16.23460311 72.9875765 24.67607546 73 35 C72.32443465 43.73321748 69.08863593 50.400815 62.625 56.3125 C55.6316338 61.90719296 48.30683059 63.13269654 39.51171875 63.09765625 C38.22483154 63.09515869 36.93794434 63.09266113 35.61206055 63.09008789 C33.98695557 63.08098389 32.36185059 63.07187988 30.6875 63.0625 C22.9221875 63.0315625 22.9221875 63.0315625 15 63 C15 74.55 15 86.1 15 98 C10.05 98 5.1 98 0 98 C0 65.66 0 33.32 0 0 Z M15 13 C15 25.54 15 38.08 15 51 C19.455 51.061875 23.91 51.12375 28.5 51.1875 C30.58344727 51.22846802 30.58344727 51.22846802 32.70898438 51.27026367 C43.63913143 51.35331096 43.63913143 51.35331096 53.05859375 46.28125 C53.51363281 45.6934375 53.96867187 45.105625 54.4375 44.5 C54.91058594 43.9121875 55.38367187 43.324375 55.87109375 42.71875 C59.1124684 37.78378513 58.40493289 31.6540629 58 26 C56.2931915 20.7847518 53.45098136 18.14186919 49 15 C44.62827376 13.22535406 40.98998892 12.76155973 36.2890625 12.8046875 C35.16709473 12.80968262 34.04512695 12.81467773 32.88916016 12.81982422 C31.4819873 12.83803223 30.07481445 12.85624023 28.625 12.875 C24.12875 12.91625 19.6325 12.9575 15 13 Z " fill="#FFFFFF" transform="translate(1865,1130)"/>
<path d="M0 0 C23.1 0 46.2 0 70 0 C70 4.62 70 9.24 70 14 C51.85 14 33.7 14 15 14 C15 22.58 15 31.16 15 40 C29.19 40 43.38 40 58 40 C58 44.29 58 48.58 58 53 C43.81 53 29.62 53 15 53 C15 67.85 15 82.7 15 98 C10.05 98 5.1 98 0 98 C0 65.66 0 33.32 0 0 Z " fill="#FFFFFF" transform="translate(2602,1130)"/>
<path d="M0 0 C23.1 0 46.2 0 70 0 C70 4.62 70 9.24 70 14 C51.85 14 33.7 14 15 14 C15 22.58 15 31.16 15 40 C28.86 40 42.72 40 57 40 C57 44.29 57 48.58 57 53 C43.14 53 29.28 53 15 53 C15 67.85 15 82.7 15 98 C10.05 98 5.1 98 0 98 C0 65.66 0 33.32 0 0 Z " fill="#FFFFFF" transform="translate(2682,1130)"/>
<path d="M0 0 C13.86 0 27.72 0 42 0 C42 4.29 42 8.58 42 13 C37.38 13 32.76 13 28 13 C28 36.76 28 60.52 28 85 C32.62 85 37.24 85 42 85 C42 89.29 42 93.58 42 98 C28.14 98 14.28 98 0 98 C0 93.71 0 89.42 0 85 C4.29 85 8.58 85 13 85 C13 61.24 13 37.48 13 13 C8.71 13 4.42 13 0 13 C0 8.71 0 4.42 0 0 Z " fill="#FFFFFF" transform="translate(1477,1130)"/>
<path d="M0 0 C12.87 0 25.74 0 39 0 C39 3.96 39 7.92 39 12 C26.13 12 13.26 12 0 12 C0 8.04 0 4.08 0 0 Z " fill="#FFFFFF" transform="translate(995,1175)"/>
</svg>
